<svg width="33" height="32" viewBox="0 0 33 32" fill="none" xmlns="http://www.w3.org/2000/svg">
<path d="M29.0047 3.20469C31.1714 5.34114 32.2547 8.13593 32.2547 10.9369C32.2547 13.7317 31.1714 16.5327 29.0047 18.6692C26.838 20.8056 24.0037 21.8738 21.163 21.8738C18.3287 21.8738 15.4881 20.8056 13.3214 18.6692C11.1547 16.5327 10.0714 13.7379 10.0714 10.9369C10.0714 8.14214 11.1547 5.34114 13.3214 3.20469C15.4881 1.06823 18.3224 0 21.163 0C23.9974 0 26.838 1.06823 29.0047 3.20469ZM31.247 10.9369C31.247 8.39056 30.2644 5.85042 28.293 3.9127C26.3278 1.97498 23.7454 0.999912 21.1693 0.999912C18.5869 0.999912 16.0109 1.96877 14.0457 3.9127C12.0806 5.85042 11.0917 8.39678 11.0917 10.9369C11.0917 13.4833 12.0743 16.0234 14.0457 17.9611C16.0109 19.8989 18.5932 20.8739 21.1693 20.8739C23.7517 20.8739 26.3278 19.9051 28.293 17.9611C30.2581 16.0234 31.247 13.4771 31.247 10.9369Z" fill="black"/>
<path d="M10.7264 18.7313L13.2521 21.2217C13.7749 21.7372 14.0331 22.4142 14.0331 23.0911C14.0331 23.6998 13.8253 24.3146 13.4033 24.7991V24.8115L13.2584 24.9543C12.7356 25.4698 12.0491 25.7245 11.3626 25.7245C10.676 25.7245 9.98947 25.4698 9.4667 24.9543L6.94099 22.4639C6.41821 21.9484 6.15997 21.2714 6.15997 20.5945C6.15997 19.9175 6.41821 19.2406 6.94099 18.7251C7.46377 18.2096 8.15031 17.955 8.83684 17.955C9.52338 17.955 10.2099 18.2096 10.7327 18.7251L10.7264 18.7313ZM12.5404 21.9235L10.0147 19.4331C9.68714 19.1101 9.25884 18.9549 8.83055 18.9549C8.40225 18.9549 7.97395 19.1163 7.64642 19.4331C7.3189 19.756 7.16144 20.1784 7.16144 20.6007C7.16144 21.023 7.3252 21.4453 7.64642 21.7683L10.1721 24.2587C10.4997 24.5817 10.928 24.737 11.3563 24.737C11.7846 24.737 12.2129 24.5755 12.5341 24.2587C12.8616 23.9358 13.0254 23.5135 13.0254 23.0911C13.0254 22.6688 12.8616 22.2465 12.5404 21.9235Z" fill="black"/>
<path d="M15.4314 19.8244L13.2773 21.9484L12.9183 22.3024L12.5592 21.9484L9.98945 19.4145L9.63043 19.0604L9.98945 18.7064L12.1435 16.5824L12.5655 16.1663L12.912 16.6507C13.082 16.8929 13.2584 17.1165 13.441 17.3277C13.6174 17.5326 13.8126 17.7438 14.0331 17.9612C14.2535 18.1785 14.4677 18.3711 14.6755 18.545C14.8897 18.7251 15.1227 18.899 15.3621 19.0667L15.8534 19.4082L15.4314 19.8244ZM12.9183 20.8988L14.3102 19.5262C14.2157 19.4517 14.1213 19.3772 14.0331 19.3027C13.7749 19.0915 13.5418 18.8803 13.3277 18.6692C13.1135 18.458 12.8994 18.222 12.6852 17.9736C12.6096 17.8804 12.5277 17.7873 12.4585 17.7003L11.0665 19.0729L12.9246 20.905L12.9183 20.8988Z" fill="black"/>
<path d="M4.57271 24.7991L7.09841 27.2895C7.42593 27.6125 7.85423 27.7677 8.28253 27.7677C8.71083 27.7677 9.13913 27.6063 9.46666 27.2895C9.79418 26.9666 9.95164 26.5443 9.95164 26.1219C9.95164 25.6996 9.78788 25.2773 9.46666 24.9543L6.94095 22.4639C6.61343 22.1409 6.18513 21.9856 5.75683 21.9856C5.32853 21.9856 4.90023 22.1471 4.57271 22.4639C4.24518 22.7868 4.08772 23.2091 4.08772 23.6315C4.08772 24.0538 4.25148 24.4761 4.57271 24.7991ZM6.38668 27.9913L3.86097 25.5009C3.3382 24.9854 3.07996 24.3084 3.07996 23.6315C3.07996 22.9545 3.3382 22.2775 3.86097 21.7621C4.38375 21.2466 5.07029 20.9919 5.75683 20.9919C6.44337 20.9919 7.1299 21.2466 7.65268 21.7621L10.1784 24.2525C10.7012 24.768 10.9594 25.445 10.9594 26.1219C10.9594 26.7989 10.7012 27.4758 10.1784 27.9913C9.65561 28.5068 8.96907 28.7615 8.28253 28.7615C7.59599 28.7615 6.90946 28.5068 6.38668 27.9913Z" fill="black"/>
<path d="M4.57272 24.799L7.09843 27.2895C7.62121 27.805 7.87945 28.482 7.87945 29.1589C7.87945 29.8359 7.62121 30.5128 7.09843 31.0283C6.57565 31.5438 5.88912 31.7984 5.20258 31.7984C4.51604 31.7984 3.8295 31.5438 3.30672 31.0283L0.781016 28.5378C0.258239 28.0224 0 27.3454 0 26.6684C0 25.9915 0.258239 25.3145 0.781016 24.799C1.30379 24.2836 1.99033 24.0289 2.67687 24.0289C3.36341 24.0289 4.04995 24.2836 4.57272 24.799ZM6.3867 27.9913L3.86099 25.5009C3.53347 25.1779 3.10517 25.0226 2.67687 25.0226C2.24857 25.0226 1.82027 25.1841 1.49275 25.5009C1.16523 25.8238 1.00776 26.2461 1.00776 26.6684C1.00776 27.0908 1.17152 27.5131 1.49275 27.836L4.01846 30.3265C4.34598 30.6495 4.77428 30.8047 5.20258 30.8047C5.63088 30.8047 6.05918 30.6433 6.3867 30.3265C6.71422 30.0036 6.87168 29.5812 6.87168 29.1589C6.87168 28.7366 6.70792 28.3143 6.3867 27.9913Z" fill="black"/>
<path d="M24.0037 12.5206C24.0037 12.887 23.9344 13.2224 23.8021 13.5205C23.6698 13.8124 23.4809 14.0733 23.2352 14.2844C22.9896 14.5018 22.6999 14.6695 22.3534 14.7999C22.007 14.9303 21.6291 15.0111 21.2134 15.0421L21.0748 16.4209C21.0685 16.4582 21.0622 16.483 21.0433 16.5141C21.0308 16.5389 20.9993 16.5637 20.9615 16.5762C20.9174 16.5948 20.8607 16.6072 20.7914 16.6196C20.7221 16.6321 20.6276 16.6383 20.5206 16.6383C20.382 16.6383 20.2686 16.6321 20.1867 16.6196C20.1049 16.6072 20.0356 16.5886 19.9852 16.5637C19.9411 16.5389 19.9033 16.5078 19.8907 16.4706C19.8781 16.4333 19.8718 16.3898 19.8781 16.3402L20.0167 15.0297C19.8277 15.0049 19.6514 14.9676 19.4876 14.9303C19.3239 14.8869 19.1727 14.8434 19.0341 14.7937C18.9019 14.744 18.7822 14.6943 18.6814 14.6447C18.5869 14.595 18.5113 14.5453 18.461 14.4956C18.4106 14.4459 18.3728 14.3714 18.3539 14.2782C18.3287 14.1789 18.3224 14.036 18.3224 13.8497C18.3224 13.7069 18.3287 13.5826 18.335 13.4895C18.3413 13.3963 18.3602 13.3218 18.3791 13.2721C18.4043 13.2224 18.4295 13.1852 18.461 13.1665C18.4924 13.1479 18.5302 13.1355 18.5743 13.1355C18.631 13.1355 18.7129 13.1665 18.82 13.2348C18.927 13.297 19.0719 13.3715 19.242 13.446C19.412 13.5205 19.6136 13.5951 19.8592 13.6572C20.0986 13.7255 20.3883 13.7565 20.7095 13.7565C21.2197 13.7565 21.5976 13.6634 21.8496 13.4771C22.0952 13.2907 22.2212 13.0423 22.2212 12.7318C22.2212 12.5268 22.1645 12.3529 22.0637 12.2225C21.9566 12.0859 21.8118 11.9741 21.6354 11.8685C21.4591 11.7691 21.2575 11.676 21.0308 11.5952C20.8103 11.5145 20.5773 11.4338 20.3442 11.3406C20.1112 11.2474 19.8781 11.1481 19.6577 11.0239C19.4309 10.9059 19.2294 10.7568 19.053 10.5767C18.8767 10.4028 18.7318 10.1854 18.6247 9.937C18.5176 9.68857 18.4673 9.38425 18.4673 9.02404C18.4673 8.70108 18.5239 8.40918 18.631 8.14213C18.7381 7.88128 18.8956 7.64528 19.1034 7.44654C19.305 7.2478 19.5569 7.08632 19.8592 6.96832C20.1553 6.8441 20.4954 6.76337 20.8733 6.71989L21.0056 5.42187C21.0119 5.38461 21.0182 5.35976 21.037 5.33492C21.0496 5.31008 21.0811 5.29145 21.1189 5.27281C21.163 5.25418 21.2197 5.24176 21.289 5.22934C21.3583 5.22313 21.4465 5.21692 21.5661 5.21692C21.7047 5.21692 21.8118 5.22313 21.8999 5.23555C21.9881 5.24797 22.0574 5.2666 22.1078 5.29145C22.1582 5.31629 22.1834 5.34734 22.2023 5.38461C22.2149 5.42187 22.2212 5.46534 22.2212 5.51503L22.0889 6.73231C22.2086 6.75095 22.3408 6.76958 22.4731 6.80063C22.6117 6.83168 22.7376 6.86895 22.851 6.90621C22.9707 6.94969 23.0778 6.98695 23.1722 7.03663C23.2667 7.08011 23.336 7.12358 23.3738 7.16085C23.4116 7.19811 23.4368 7.23537 23.4557 7.26643C23.4746 7.30369 23.4935 7.34717 23.4998 7.40306C23.5124 7.45275 23.5187 7.52106 23.525 7.59559C23.5313 7.67012 23.5313 7.75707 23.5313 7.85644C23.5313 7.99307 23.5313 8.09865 23.525 8.1856C23.5187 8.27255 23.5061 8.33466 23.4872 8.38434C23.4746 8.42782 23.4494 8.45887 23.4305 8.4775C23.4053 8.48992 23.3864 8.50234 23.3549 8.50234C23.2982 8.50234 23.2163 8.4775 23.1093 8.42161C23.0022 8.36571 22.8636 8.30981 22.7062 8.2415C22.5487 8.17939 22.366 8.11728 22.1582 8.06139C21.9503 8.00549 21.7236 7.98065 21.4779 7.98065C21.2512 7.98065 21.0559 8.00549 20.8985 8.04276C20.741 8.08623 20.6088 8.14834 20.508 8.22286C20.4072 8.29739 20.3316 8.39055 20.2875 8.50234C20.2434 8.60792 20.2182 8.72593 20.2182 8.85635C20.2182 9.05509 20.2749 9.22899 20.382 9.36562C20.4891 9.50226 20.6339 9.62026 20.8166 9.71963C20.9993 9.819 21.2008 9.90595 21.4276 9.9929C21.6543 10.0736 21.8873 10.1606 22.1267 10.2475C22.366 10.3407 22.5991 10.4463 22.8258 10.5643C23.0526 10.6823 23.2604 10.8251 23.4368 10.999C23.6131 11.1729 23.758 11.3841 23.8714 11.6325C23.9785 11.8809 24.0351 12.1728 24.0351 12.5268L24.0037 12.5206Z" fill="black"/>
</svg>
