<svg width="63" height="38" viewBox="0 0 63 38" fill="none" xmlns="http://www.w3.org/2000/svg">
<path d="M61.568 0H0.977315C0.439817 0 4.57764e-05 0.439771 4.57764e-05 0.977269V12.5335C4.57764e-05 13.071 0.439817 13.5107 0.977315 13.5107H20.4983C21.0358 13.5107 21.4755 13.071 21.4755 12.5335V7.73264H41.0698V12.5335C41.0698 13.071 41.5096 13.5107 42.0471 13.5107H61.568C62.1055 13.5107 62.5453 13.071 62.5453 12.5335V0.977269C62.5453 0.439771 62.1055 0 61.568 0ZM1.95458 1.95454H60.5907V11.5562H43.0243V6.75537C43.0243 6.21788 42.5846 5.7781 42.0471 5.7781H20.4983C19.9608 5.7781 19.521 6.21788 19.521 6.75537V11.5562H1.95458V1.95454Z" fill="black"/>
<path d="M52.0397 7.74488C52.5772 7.74488 53.017 7.30511 53.017 6.76761C53.017 6.23012 52.5772 5.79034 52.0397 5.79034H10.5057C9.96825 5.79034 9.52848 6.23012 9.52848 6.76761C9.52848 7.30511 9.96825 7.74488 10.5057 7.74488H52.0397Z" fill="black"/>
<path d="M36.9897 16.7113V25.9465L36.7576 26.1786C34.3755 26.374 33.9601 28.1942 33.9113 29.0982L33.6547 29.3547H31.2604H28.8661L28.6096 29.0982C28.5485 28.2064 28.1454 26.374 25.7633 26.1786L25.5312 25.9465V16.7113V7.74483H36.9897V16.7113ZM38.9442 26.3496V16.7113V7.07296C38.9442 6.82864 38.8465 6.58432 38.6632 6.38887L38.4067 6.12012C38.2235 5.91245 37.9547 5.77808 37.6615 5.77808H24.8715C24.615 5.77808 24.3585 5.8758 24.1752 6.07126L23.9187 6.32779C23.711 6.51103 23.5889 6.76756 23.5889 7.06074V16.6991V26.3374C23.5889 26.5817 23.6866 26.826 23.8698 27.0215L24.6028 27.7666C24.786 27.9743 25.0548 28.1087 25.3479 28.1087C26.6917 28.1087 26.6917 29.1959 26.6795 29.3791C26.6428 29.6601 26.7406 29.9533 26.9482 30.1732L27.7178 30.955C27.9011 31.1626 28.1698 31.297 28.463 31.297H31.2726H34.0823C34.3388 31.297 34.5954 31.1993 34.7786 31.0038L35.5971 30.1732C35.7925 29.9777 35.8902 29.6967 35.8658 29.4036C35.8658 29.4036 35.7314 28.1087 37.1973 28.1087C37.4539 28.1087 37.7104 28.011 37.8936 27.8155L38.6266 27.0703C38.8343 26.8871 38.9564 26.6306 38.9564 26.3374L38.9442 26.3496Z" fill="black"/>
<path d="M26.8994 16.7113C26.8994 17.9207 27.3881 19.0079 28.1821 19.8019C28.9761 20.5959 30.0633 21.0846 31.2727 21.0846C32.4821 21.0846 33.5693 20.5959 34.3633 19.8019C35.1574 19.0079 35.646 17.9207 35.646 16.7113C35.646 15.5019 35.1574 14.4147 34.3633 13.6207C33.5693 12.8266 32.4821 12.338 31.2727 12.338C30.0633 12.338 28.9761 12.8266 28.1821 13.6207C27.3881 14.4147 26.8994 15.5019 26.8994 16.7113ZM29.5625 18.4215C29.1227 17.9817 28.854 17.3832 28.854 16.7113C28.854 16.0394 29.1227 15.4408 29.5625 15.0011C30.0023 14.5613 30.6008 14.2926 31.2727 14.2926C31.9446 14.2926 32.5432 14.5613 32.9829 15.0011C33.4227 15.4408 33.6915 16.0394 33.6915 16.7113C33.6915 17.3832 33.4227 17.9817 32.9829 18.4215C32.5432 18.8613 31.9446 19.13 31.2727 19.13C30.6008 19.13 30.0023 18.8613 29.5625 18.4215Z" fill="black"/>
<path d="M19.521 6.76761V36.1346C19.521 36.6721 19.9607 37.1118 20.4982 37.1118H42.047C42.5845 37.1118 43.0243 36.6721 43.0243 36.1346V6.76761C43.0243 6.23012 42.5845 5.79034 42.047 5.79034H20.4982C19.9607 5.79034 19.521 6.23012 19.521 6.76761ZM21.4755 35.1573V7.74488H41.0698V35.1573H21.4755Z" fill="black"/>
</svg>
